<svg version="1.1" baseProfile="full" width="700" height="500" xmlns="http://www.w3.org/2000/svg" xmlns:xlink="http://www.w3.org/1999/xlink">
    <style>

        /* <![CDATA[ */

        .back-pane {
            fill: #555;
        }

        .middle-pane {
            fill: url("#grid");
            stroke: #f5f5f5;
            stroke-width: 10;
        }

        .ornament-foreground {
            fill: #f5f5f5;
        }

        .ornament-background {
            fill: #555;
            stroke: #555;
            stroke-width: 32;
        }

        .star {
            fill: #555;
        }

        .center-dot {
            fill: #f5f5f5;
            stroke: #555;
            stroke-width: 8;
        }

        /* ]]> */

    </style>
    <defs>
        <pattern id="grid" x="0" y="0" width="54" height="54" patternUnits="userSpaceOnUse" patternTransform="translate(6 6) rotate(45 350 250)">
            <rect x="3" y="3" width="48" height="48" fill="url(#subgrid)"/>
        </pattern>
        <pattern id="subgrid" x="5" y="5" width="12" height="16" patternUnits="userSpaceOnUse">
            <rect x="0" y="0" width="8" height="12" fill="white"/>
        </pattern>
        <g id="hexalobe">
            <circle cx="0" cy="0" r="50"/>
            <circle cx="0" cy="0" r="50" transform="rotate(  0) translate(0 80)"/>
            <circle cx="0" cy="0" r="50" transform="rotate( 60) translate(0 80)"/>
            <circle cx="0" cy="0" r="50" transform="rotate(120) translate(0 80)"/>
            <circle cx="0" cy="0" r="50" transform="rotate(180) translate(0 80)"/>
            <circle cx="0" cy="0" r="50" transform="rotate(240) translate(0 80)"/>
            <circle cx="0" cy="0" r="50" transform="rotate(300) translate(0 80)"/>
        </g>
        <g id="star">
            <path d="M 0 0 q -24 100 0 100 T 0 0" transform="rotate(  0)"/>
            <path d="M 0 0 q -24 100 0 100 T 0 0" transform="rotate( 60)"/>
            <path d="M 0 0 q -24 100 0 100 T 0 0" transform="rotate(120)"/>
            <path d="M 0 0 q -24 100 0 100 T 0 0" transform="rotate(180)"/>
            <path d="M 0 0 q -24 100 0 100 T 0 0" transform="rotate(240)"/>
            <path d="M 0 0 q -24 100 0 100 T 0 0" transform="rotate(300)"/>
            <path d="M 0 0 q -22  70 0  70 T 0 0" transform="rotate( 30)"/>
            <path d="M 0 0 q -22  70 0  70 T 0 0" transform="rotate( 90)"/>
            <path d="M 0 0 q -22  70 0  70 T 0 0" transform="rotate(150)"/>
            <path d="M 0 0 q -22  70 0  70 T 0 0" transform="rotate(210)"/>
            <path d="M 0 0 q -22  70 0  70 T 0 0" transform="rotate(270)"/>
            <path d="M 0 0 q -22  70 0  70 T 0 0" transform="rotate(330)"/>
        </g>
    </defs>
    <!-- <rect class="mock-card" x="10" y="10" width="480" height="680" rx="20" ry="20" fill="#f5f5f5"/> -->
    <rect class="back-pane" x="30" y="30" width="640" height="440" rx="10" ry="10"/>
    <rect class="middle-pane" x="60" y="60" width="580" height="380" rx="1" ry="1"/>
    <g transform="translate(350 250)">
        <use class="ornament-background" xlink:href="#hexalobe"/>
        <use class="ornament-foreground" xlink:href="#hexalobe"/>
        <use class="star" xlink:href="#star"/>
        <circle class="center-dot" cx="0" cy="0" r="12"/>
    </g>
</svg>
