<?xml version="1.0" standalone="no"?>
<!DOCTYPE svg PUBLIC "-//W3C//DTD SVG 20010904//EN"
 "http://www.w3.org/TR/2001/REC-SVG-20010904/DTD/svg10.dtd">
<svg version="1.0" xmlns="http://www.w3.org/2000/svg"
 width="16.000000pt" height="16.000000pt" viewBox="0 0 16.000000 16.000000"
 preserveAspectRatio="xMidYMid meet">
<metadata>
Created by potrace 1.11, written by Peter Selinger 2001-2013
</metadata>
<g transform="translate(0.000000,16.000000) scale(0.002286,-0.002286)"
fill="#000000" stroke="none">
<path d="M5519 5649 c-361 -30 -655 -340 -671 -709 -1 -38 4 -124 18 -280 1
-19 6 -93 9 -165 4 -71 8 -146 10 -165 8 -83 18 -568 18 -840 0 -257 -8 -627
-18 -815 -2 -33 -6 -109 -9 -170 -6 -111 -15 -231 -22 -295 -6 -52 -5 -201 1
-235 3 -16 15 -61 26 -100 76 -254 268 -438 530 -506 79 -20 109 -21 474 -23
215 -1 419 2 455 7 324 39 577 270 644 587 13 60 14 248 2 350 -3 19 -8 91
-12 160 -3 69 -8 145 -10 170 -25 331 -25 1450 0 1770 2 25 7 99 11 165 3 66
8 136 10 155 3 19 7 93 9 163 7 182 -26 304 -119 447 -114 174 -302 294 -510
326 -61 9 -740 11 -846 3z"/>
<path d="M977 5578 c-158 -166 -457 -536 -457 -566 0 -6 -4 -12 -9 -14 -8 -3
-161 -242 -161 -251 0 -2 -18 -37 -41 -78 -75 -136 -200 -444 -224 -553 -2
-11 -14 -59 -25 -105 -41 -169 -55 -300 -55 -516 1 -286 36 -495 130 -765 153
-438 444 -890 842 -1308 93 -98 105 -98 204 6 67 69 128 138 216 242 290 342
519 742 644 1124 109 335 140 723 84 1056 -31 180 -52 264 -112 435 -146 422
-458 902 -834 1287 -99 103 -109 103 -202 6z"/>
<path d="M4199 5637 c-8 -7 -44 -46 -79 -87 -36 -41 -69 -80 -75 -86 -12 -14
-15 -17 -240 -279 -99 -116 -182 -212 -185 -215 -3 -3 -129 -149 -280 -325
-151 -176 -279 -325 -285 -331 -5 -6 -32 -37 -60 -69 -27 -32 -97 -113 -155
-180 -58 -66 -127 -148 -155 -180 -27 -32 -76 -88 -108 -124 -70 -79 -89 -113
-82 -144 4 -13 39 -51 78 -84 40 -34 82 -69 93 -79 12 -11 46 -39 75 -64 30
-25 88 -74 130 -110 41 -36 89 -76 106 -90 172 -143 174 -144 169 -170 -3 -14
-91 -326 -196 -695 -259 -906 -248 -867 -253 -900 -9 -60 64 -98 109 -58 11
10 60 65 109 123 49 58 94 110 100 116 5 6 33 37 60 70 42 49 95 110 219 254
198 230 526 611 541 629 11 13 27 31 36 40 9 9 87 99 174 201 87 102 179 210
206 240 26 30 80 93 120 140 39 47 80 93 90 103 31 30 49 72 41 100 -7 25 -58
71 -362 327 -62 52 -118 100 -124 105 -6 6 -45 39 -86 74 -41 36 -76 68 -78
72 -3 8 20 93 298 1064 84 292 152 537 152 545 1 35 -3 49 -18 64 -18 19 -63
20 -85 3z"/>
</g>
</svg>
