<?xml version="1.0" standalone="no"?>
<!DOCTYPE svg PUBLIC "-//W3C//DTD SVG 20010904//EN"
 "http://www.w3.org/TR/2001/REC-SVG-20010904/DTD/svg10.dtd">
<svg version="1.0" xmlns="http://www.w3.org/2000/svg"
 width="16.000000pt" height="16.000000pt" viewBox="0 0 16.000000 16.000000"
 preserveAspectRatio="xMidYMid meet">
<metadata>
Created by potrace 1.11, written by Peter Selinger 2001-2013
</metadata>
<g transform="translate(0.000000,16.000000) scale(0.002286,-0.002286)"
fill="#000000" stroke="none">
<path d="M5515 5648 c-239 -20 -461 -167 -579 -382 -39 -71 -75 -186 -83 -263
-3 -37 -6 -732 -6 -1543 1 -1466 1 -1475 22 -1554 71 -266 272 -467 538 -537
73 -19 106 -21 493 -21 228 -1 433 2 455 5 247 33 464 190 568 409 78 163 71
15 74 1713 3 1476 2 1522 -17 1601 -73 307 -301 517 -616 570 -53 9 -750 11
-849 2z"/>
<path d="M996 5598 c-353 -361 -661 -816 -814 -1203 -130 -331 -177 -569 -177
-900 1 -286 36 -495 130 -765 153 -438 444 -890 842 -1308 93 -98 105 -98 204
6 67 69 128 138 216 242 290 342 519 742 644 1124 109 335 140 723 84 1056
-31 180 -52 264 -112 435 -146 422 -458 902 -834 1287 -95 98 -110 100 -183
26z"/>
<path d="M4199 5638 c-8 -7 -44 -47 -80 -88 -35 -41 -68 -80 -74 -86 -13 -14
-26 -30 -240 -279 -99 -116 -182 -212 -185 -215 -3 -3 -129 -149 -280 -325
-151 -176 -279 -325 -285 -331 -5 -6 -32 -37 -60 -69 -27 -32 -97 -113 -155
-180 -58 -66 -127 -148 -155 -180 -27 -32 -76 -88 -108 -124 -70 -79 -89 -113
-82 -144 4 -13 39 -51 78 -84 40 -34 82 -69 93 -79 12 -11 46 -39 75 -64 30
-25 88 -74 130 -110 41 -36 89 -76 106 -90 172 -143 174 -144 169 -170 -3 -14
-91 -326 -196 -695 -259 -906 -248 -867 -253 -900 -9 -60 64 -98 109 -58 11
10 60 65 109 123 49 58 94 110 100 116 5 6 33 37 60 70 42 49 95 110 219 254
198 230 526 611 541 629 11 13 27 31 36 40 9 9 87 99 174 201 87 102 179 210
206 240 26 30 80 93 120 140 39 47 80 93 90 103 31 30 49 72 41 100 -7 25 -58
71 -362 327 -62 52 -118 100 -124 105 -6 6 -45 39 -86 74 -41 36 -76 68 -78
72 -3 8 20 93 298 1064 84 292 152 537 152 545 1 35 -3 49 -18 64 -19 19 -64
21 -85 4z"/>
</g>
</svg>
